<svg width="120" height="120" viewBox="0 0 120 120" fill="none" xmlns="http://www.w3.org/2000/svg">
<rect width="120" height="120" rx="4" fill="#D4D4D4"/>
<path d="M73.5 65.9999V53.9999C73.4995 53.4738 73.3606 52.9571 73.0973 52.5016C72.834 52.0461 72.4556 51.6679 72 51.4049L61.5 45.4049C61.0439 45.1415 60.5266 45.0029 60 45.0029C59.4734 45.0029 58.9561 45.1415 58.5 45.4049L48 51.4049C47.5444 51.6679 47.166 52.0461 46.9027 52.5016C46.6394 52.9571 46.5005 53.4738 46.5 53.9999V65.9999C46.5005 66.5259 46.6394 67.0426 46.9027 67.4981C47.166 67.9536 47.5444 68.3318 48 68.5949L58.5 74.5949C58.9561 74.8582 59.4734 74.9968 60 74.9968C60.5266 74.9968 61.0439 74.8582 61.5 74.5949L72 68.5949C72.4556 68.3318 72.834 67.9536 73.0973 67.4981C73.3606 67.0426 73.4995 66.5259 73.5 65.9999Z" stroke="#EBEBEB" stroke-width="2" stroke-linecap="round" stroke-linejoin="round"/>
<path d="M46.9048 52.4399L59.9998 60.0149L73.0948 52.4399" stroke="#EBEBEB" stroke-width="2" stroke-linecap="round" stroke-linejoin="round"/>
<path d="M60 75.12V60" stroke="#EBEBEB" stroke-width="2" stroke-linecap="round" stroke-linejoin="round"/>
</svg>
