<svg width="190" height="190" viewBox="0 0 190 190" fill="none" xmlns="http://www.w3.org/2000/svg">
<rect width="190" height="190" rx="4" fill="#D4D4D4"/>
<path d="M116.75 104.667V85.3334C116.749 84.4858 116.525 83.6534 116.101 82.9196C115.677 82.1858 115.067 81.5764 114.333 81.1526L97.4167 71.4859C96.6819 71.0617 95.8484 70.8384 95 70.8384C94.1516 70.8384 93.3181 71.0617 92.5833 71.4859L75.6667 81.1526C74.9326 81.5764 74.323 82.1858 73.8988 82.9196C73.4746 83.6534 73.2509 84.4858 73.25 85.3334V104.667C73.2509 105.514 73.4746 106.347 73.8988 107.081C74.323 107.814 74.9326 108.424 75.6667 108.848L92.5833 118.514C93.3181 118.938 94.1516 119.162 95 119.162C95.8484 119.162 96.6819 118.938 97.4167 118.514L114.333 108.848C115.067 108.424 115.677 107.814 116.101 107.081C116.525 106.347 116.749 105.514 116.75 104.667Z" stroke="#EBEBEB" stroke-width="2" stroke-linecap="round" stroke-linejoin="round"/>
<path d="M73.9023 82.8198L94.9998 95.024L116.097 82.8198" stroke="#EBEBEB" stroke-width="2" stroke-linecap="round" stroke-linejoin="round"/>
<path d="M95 119.36V95" stroke="#EBEBEB" stroke-width="2" stroke-linecap="round" stroke-linejoin="round"/>
</svg>
