<?xml version='1.0' encoding='utf-8'?>
<svg xmlns="http://www.w3.org/2000/svg" height="100%" stroke-miterlimit="10" style="fill-rule:nonzero;clip-rule:evenodd;stroke-linecap:round;stroke-linejoin:round;" version="1.1" viewBox="0 0 1920 1080" width="100%"> <defs> <linearGradient gradientTransform="matrix(1 0 0 1 -125.564 -162.369)" gradientUnits="userSpaceOnUse" id="LinearGradient" x1="0" x2="0" y1="0.5" y2="0.5"> <stop offset="0.0729167" stop-color="#fe368c"/> <stop offset="0.227083" stop-color="#df3066"/> <stop offset="0.3125" stop-color="#e3286b"/> <stop offset="0.5" stop-color="#8c2655"/> <stop offset="0.691667" stop-color="#f30385"/> <stop offset="0.760417" stop-color="#f30382"/> <stop offset="0.88125" stop-color="#f4027e"/> <stop offset="1" stop-color="#f3058e"/> </linearGradient> <linearGradient gradientTransform="matrix(1 0 0 1 183.156 18.9375)" gradientUnits="userSpaceOnUse" id="LinearGradient_2" x1="670.789" x2="905.625" y1="569.062" y2="752.812"> <stop offset="0" stop-color="#fcfcfc"/> <stop offset="0.51875" stop-color="#efefef"/> <stop offset="1" stop-color="#cfcfcf"/> </linearGradient> </defs> <g id="Layer-1"> <path d="M960 774.185C991.548 774.185 1021.33 768.068 1049.34 755.833C1077.35 743.598 1102.07 726.762 1123.51 705.325C1144.94 683.889 1161.78 659.166 1174.01 631.156C1186.25 603.147 1192.37 573.368 1192.37 541.82C1192.37 510.07 1186.25 480.19 1174.01 452.18C1161.78 424.171 1144.94 399.499 1123.51 378.163C1102.07 356.828 1077.35 340.042 1049.34 327.807C1021.33 315.572 991.447 309.455 959.697 309.455C927.946 309.455 898.066 315.572 870.057 327.807C842.048 340.042 817.375 356.828 796.04 378.163C774.704 399.499 757.97 424.171 745.836 452.18C733.702 480.19 727.635 510.07 727.635 541.82C727.635 573.368 733.702 603.147 745.836 631.156C757.97 659.166 774.755 683.889 796.192 705.325C817.628 726.762 842.351 743.598 870.36 755.833C898.37 768.068 928.249 774.185 960 774.185Z" fill="url(#LinearGradient)" opacity="1" stroke="#ffffff" stroke-linecap="butt" stroke-linejoin="round" stroke-width="8.98669"/> <path d="M734.5 540C734.5 429.543 835.46 340 960 340C1084.54 340 1185.5 429.543 1185.5 540C1185.5 650.457 1084.54 740 960 740C835.46 740 734.5 650.457 734.5 540Z" fill="#f10e6f" fill-rule="nonzero" opacity="0.0769231" stroke="#ffffff" stroke-linecap="butt" stroke-linejoin="round" stroke-width="0.1"/> <path d="M868.957 493.801C868.957 495.813 869.68 497.547 871.127 499.002C872.574 500.457 874.268 501.184 876.208 501.184L895.659 501.184L905.606 569.192C906.397 574.42 908.223 578.519 911.084 581.487C913.946 584.456 918.007 585.94 923.268 585.94L1000.21 585.94C1001.99 585.94 1003.57 585.329 1004.93 584.106C1006.29 582.884 1006.97 581.273 1006.97 579.273C1006.97 577.3 1006.29 575.706 1004.93 574.491C1003.57 573.276 1001.99 572.669 1000.21 572.669L925.065 572.669C923.741 572.669 922.662 572.23 921.828 571.351C920.993 570.472 920.479 569.304 920.284 567.846L919.266 561.018L1001.03 561.018C1006.31 561.018 1010.39 559.536 1013.26 556.574C1016.14 553.611 1017.96 549.48 1018.72 544.179L1023.41 512.518C1023.5 512.048 1023.57 511.55 1023.64 511.023C1023.7 510.497 1023.74 510.009 1023.74 509.56C1023.74 507.397 1023.02 505.62 1021.59 504.228C1020.16 502.836 1018.11 502.14 1015.44 502.14L910.872 502.14L909.882 495.888C909.459 492.768 908.431 490.421 906.797 488.846C905.163 487.272 902.374 486.485 898.429 486.485L876.208 486.485C874.268 486.485 872.574 487.213 871.127 488.667C869.68 490.122 868.957 491.833 868.957 493.801ZM916.656 607.735C916.656 609.988 917.208 612.04 918.312 613.89C919.416 615.741 920.886 617.207 922.722 618.289C924.557 619.371 926.609 619.912 928.878 619.912C932.242 619.912 935.112 618.735 937.489 616.38C939.867 614.025 941.055 611.144 941.055 607.735C941.055 605.497 940.507 603.452 939.409 601.601C938.312 599.751 936.846 598.281 935.01 597.192C933.175 596.103 931.131 595.558 928.878 595.558C926.609 595.558 924.557 596.103 922.722 597.192C920.886 598.281 919.416 599.751 918.312 601.601C917.208 603.452 916.656 605.497 916.656 607.735ZM977.201 607.735C977.201 609.988 977.753 612.04 978.858 613.89C979.962 615.741 981.439 617.207 983.29 618.289C985.14 619.371 987.192 619.912 989.444 619.912C992.825 619.912 995.704 618.735 998.081 616.38C1000.46 614.025 1001.65 611.144 1001.65 607.735C1001.65 605.497 1001.1 603.452 1000 601.601C998.903 599.751 997.436 598.281 995.601 597.192C993.766 596.103 991.714 595.558 989.444 595.558C987.192 595.558 985.14 596.103 983.29 597.192C981.439 598.281 979.962 599.751 978.858 601.601C977.753 603.452 977.201 605.497 977.201 607.735Z" fill="url(#LinearGradient_2)" opacity="1" stroke="#ffffff" stroke-linecap="butt" stroke-linejoin="round" stroke-width="0"/> </g> </svg>